<svg width="35" height="36" viewBox="0 0 35 36" fill="none" xmlns="http://www.w3.org/2000/svg">
<path d="M12.7027 20.7322L14.4478 18.4964L14.7862 18.0628L14.5161 17.569L13.3386 15.4134C12.9471 14.6944 12.548 13.9784 12.1519 13.2625C11.7558 12.5465 11.3583 11.8306 10.9546 11.1177C10.774 10.7983 10.595 10.4789 10.4144 10.158L10.6784 10.1533L12.3036 10.1209L13.9289 10.0824L15.1959 10.0469L16.1762 11.6717L17.3796 13.6344L17.724 14.1975L18.1414 13.7454C18.5996 13.2486 19.0625 12.7548 19.5192 12.2549C19.9775 11.7565 20.4327 11.2566 20.8865 10.7536L22.24 9.23834C22.4661 8.98683 22.6877 8.72914 22.9108 8.47455C23.1338 8.21995 23.3569 7.96381 23.5754 7.70459C23.3144 7.91907 23.0549 8.13817 22.7969 8.35574C22.539 8.5733 22.2795 8.79086 22.0246 9.01306L20.4919 10.34C19.9836 10.7844 19.4767 11.2319 18.9729 11.6809C18.63 11.9849 18.2885 12.2904 17.9486 12.5975L17.1823 11.0899L16.1231 9.04392L15.9547 8.71989L15.5556 8.70908L13.9304 8.66279L12.3052 8.62422L10.68 8.59182L9.05474 8.56559L7.71785 8.54398L8.36126 9.76604C8.74366 10.4913 9.13669 11.2088 9.52364 11.9309C9.9106 12.653 10.3036 13.372 10.6966 14.0895C11.0897 14.8086 11.4797 15.5276 11.8788 16.242L12.8044 17.91L11.4372 19.7323L9.74823 22.0129C8.62985 23.5389 7.51451 25.068 6.41738 26.611C5.31722 28.1509 4.22919 29.7017 3.15634 31.2647C2.61916 32.0455 2.08652 32.8293 1.56148 33.6193C1.0334 34.4063 0.511387 35.1994 0 36.0002C0.638855 35.2997 1.26557 34.5899 1.88622 33.8755C2.51142 33.1642 3.12751 32.4467 3.74057 31.7261C4.96668 30.2849 6.17762 28.8329 7.37642 27.3686C8.57674 25.9074 9.76188 24.4338 10.941 22.9556L12.7027 20.7322Z" fill="#023D98"/>
<path d="M32.4758 2.12163C31.8506 2.83296 31.2345 3.55045 30.6214 4.27104C29.3953 5.7122 28.1844 7.16417 26.9856 8.62848C25.7852 10.0897 24.6001 11.5633 23.421 13.0415L21.6608 15.2665L19.9157 17.5023L19.5773 17.9359L19.8474 18.4296L21.0249 20.5852C21.4164 21.3043 21.8155 22.0202 22.2116 22.7362C22.6077 23.4521 23.0052 24.1681 23.4089 24.8809C23.5895 25.2003 23.7685 25.5197 23.9491 25.8407L23.6851 25.8453L22.0599 25.8777L20.4346 25.9163L19.1676 25.9518L18.1873 24.327L16.9839 22.3643L16.6395 21.8011L16.2221 22.2532C15.7639 22.7501 15.301 23.2438 14.8443 23.7437C14.386 24.2421 13.9308 24.7421 13.477 25.2451L12.1235 26.7603C11.8974 27.0118 11.6758 27.2695 11.4527 27.5241C11.2297 27.7787 11.0066 28.0348 10.7881 28.2941C11.0491 28.0796 11.3086 27.8605 11.5665 27.6429C11.8245 27.4254 12.084 27.2078 12.3389 26.9856L13.8716 25.6586C14.3799 25.2142 14.8868 24.7668 15.3906 24.3177C15.7335 24.0138 16.075 23.7083 16.4149 23.4012L17.1812 24.9087L18.2404 26.9547L18.4088 27.2788L18.8079 27.2896L20.4331 27.3359L22.0583 27.3744L23.6835 27.4068L25.3088 27.4331L26.6456 27.4547L26.0022 26.2326C25.6198 25.5074 25.2268 24.7899 24.8399 24.0678C24.4529 23.3457 24.0599 22.6266 23.6669 21.9091C23.2738 21.1901 22.8838 20.471 22.4847 19.7566L21.5591 18.0902L22.9263 16.2679L24.6153 13.9873C25.7336 12.4613 26.849 10.9322 27.9461 9.38918C29.0463 7.84926 30.1343 6.29854 31.2072 4.73548C31.7443 3.95472 32.277 3.17087 32.802 2.38086C33.3301 1.59392 33.8521 0.800819 34.3635 0C33.7231 0.697438 33.0964 1.40722 32.4758 2.12163Z" fill="#009B9B"/>
</svg>
